<svg width="16" height="16" viewBox="0 0 16 16" fill="none" xmlns="http://www.w3.org/2000/svg">
<path fill-rule="evenodd" clip-rule="evenodd" d="M13.7236 1.66473C13.9706 1.54124 14.0707 1.2409 13.9472 0.99391C13.8237 0.746921 13.5234 0.646809 13.2764 0.770303C12.9904 0.913316 12.682 1.12044 12.3795 1.32986C12.3124 1.3763 12.2452 1.42313 12.1778 1.47015L12.1776 1.47029L12.1775 1.47035L12.1775 1.47037C11.9307 1.64241 11.6805 1.81685 11.4191 1.98319C10.7426 2.41365 10.0971 2.71752 9.50001 2.71752C8.7545 2.71752 8.42346 2.66412 8.19058 2.56061C7.95485 2.45585 7.77227 2.28267 7.35357 1.86397C7.0032 1.5136 6.53512 1.4534 6.12165 1.50041C5.70811 1.54743 5.26929 1.70777 4.8592 1.904C4.0344 2.29866 3.19912 2.90075 2.67992 3.33341C2.46778 3.5102 2.43912 3.82548 2.6159 4.03762C2.79268 4.24975 3.10797 4.27842 3.3201 4.10163C3.8009 3.70097 4.56562 3.15305 5.29083 2.80605C5.65573 2.63144 5.97941 2.52303 6.23463 2.49401C6.48991 2.46498 6.59683 2.52145 6.64646 2.57108L6.68737 2.61202C7.05075 2.97572 7.36098 3.28622 7.78445 3.47443C7.78473 3.47455 7.78501 3.47468 7.7853 3.47481C8.46474 3.25401 9.21922 3.19912 10.0283 3.38575C10.2 3.42535 10.3717 3.47523 10.5434 3.53538C11.0553 3.36437 11.5341 3.09532 11.9559 2.82685C12.237 2.64802 12.5098 2.45781 12.7585 2.28433L12.7587 2.28422C12.8238 2.23885 12.8872 2.19463 12.9487 2.15205C13.2556 1.93959 13.5096 1.77172 13.7236 1.66473ZM6.58807 4.07472C6.43091 4.05439 6.27264 4.05726 6.12165 4.07443C5.70811 4.12145 5.26929 4.28178 4.8592 4.47801C4.0344 4.87267 3.19912 5.47476 2.67992 5.90743C2.46778 6.08421 2.43912 6.39949 2.6159 6.61163C2.79268 6.82377 3.10797 6.85243 3.3201 6.67565C3.77287 6.29834 4.47741 5.79046 5.16364 5.44274C5.5527 4.95144 6.02498 4.46343 6.58807 4.07472ZM12.7463 4.86684C12.4672 4.62782 12.1884 4.41557 11.9099 4.23015C11.9998 4.16824 12.0888 4.10616 12.1774 4.04439L12.1775 4.04437L12.1775 4.04435L12.1775 4.04434L12.1775 4.04432L12.178 4.044C12.2454 3.99704 12.3125 3.95026 12.3795 3.90387C12.682 3.69445 12.9904 3.48733 13.2764 3.34432C13.5234 3.22082 13.8237 3.32093 13.9472 3.56792C14.0707 3.81491 13.9706 4.11525 13.7236 4.23874C13.5096 4.34573 13.2556 4.51361 12.9487 4.72606C12.8873 4.76859 12.8239 4.81276 12.7589 4.85808L12.7585 4.85834L12.7585 4.85835L12.7584 4.85842L12.7583 4.8585L12.7582 4.85855C12.7543 4.86131 12.7503 4.86408 12.7463 4.86684ZM4.18649 7.41438C3.60097 7.76301 3.05706 8.16668 2.67992 8.48097C2.46778 8.65775 2.43912 8.97303 2.6159 9.18517C2.79268 9.39731 3.10797 9.42597 3.3201 9.24919C3.6491 8.97502 4.11104 8.63191 4.6023 8.3314L4.34216 7.88083C4.25795 7.73496 4.20608 7.57616 4.18649 7.41438ZM13.4442 6.97043C13.4256 6.62884 13.3833 6.27192 13.3165 5.89994C13.555 5.8055 13.8303 5.90769 13.9472 6.14146C14.0707 6.38845 13.9706 6.68879 13.7236 6.81228C13.6373 6.85544 13.5444 6.90852 13.4442 6.97043ZM5.31773 9.57057C5.1628 9.62892 5.00908 9.69584 4.8592 9.76756C4.0344 10.1622 3.19912 10.7643 2.67992 11.197C2.46778 11.3738 2.43912 11.689 2.6159 11.9012C2.79268 12.1133 3.10797 12.142 3.3201 11.9652C3.8009 11.5645 4.56562 11.0166 5.29083 10.6696C5.48197 10.5782 5.66179 10.5049 5.82639 10.4516L5.31773 9.57057ZM12.6538 10.2209C12.9736 9.75632 13.2022 9.21865 13.3314 8.61033C13.5664 8.5258 13.8328 8.62855 13.9472 8.85747C14.0707 9.10446 13.9706 9.4048 13.7236 9.52829C13.5096 9.63528 13.2556 9.80316 12.9487 10.0156C12.8872 10.0582 12.8237 10.1024 12.7586 10.1478L12.7585 10.1479L12.7585 10.1479C12.7241 10.1719 12.6892 10.1963 12.6538 10.2209ZM13.9472 11.5733C14.0707 11.8203 13.9706 12.1206 13.7236 12.2441C13.5096 12.3511 13.2556 12.5189 12.9487 12.7314C12.8872 12.774 12.8237 12.8182 12.7586 12.8636L12.7585 12.8637L12.7585 12.8637C12.5097 13.0372 12.237 13.2274 11.9559 13.4062C11.2574 13.8507 10.4029 14.2969 9.50001 14.2969C8.74553 14.2969 8.22656 14.2503 7.78445 14.0538C7.36098 13.8656 7.05075 13.5551 6.68737 13.1914L6.64646 13.1504C6.59683 13.1008 6.48991 13.0443 6.23463 13.0734C5.97941 13.1024 5.65573 13.2108 5.29083 13.3854C4.56562 13.7324 3.8009 14.2803 3.3201 14.681C3.10797 14.8578 2.79268 14.8291 2.6159 14.617C2.43912 14.4048 2.46778 14.0895 2.67992 13.9128C3.19912 13.4801 4.0344 12.878 4.8592 12.4834C5.26929 12.2871 5.70811 12.1268 6.12165 12.0798C6.53512 12.0328 7.0032 12.093 7.35357 12.4433C7.77227 12.862 7.95485 13.0352 8.19058 13.14C8.42346 13.2435 8.7545 13.2969 9.50001 13.2969C10.0971 13.2969 10.7426 12.993 11.4191 12.5625C11.6804 12.3962 11.9306 12.2218 12.1774 12.0498L12.1774 12.0497L12.1775 12.0497C12.245 12.0026 12.3123 11.9557 12.3795 11.9092C12.682 11.6998 12.9904 11.4927 13.2764 11.3497C13.5234 11.2262 13.8237 11.3263 13.9472 11.5733Z" fill="#8DA5F3"/>
<path d="M8.14132 10.3338L6.39135 7.30276C7.301 5.76721 9.0526 3.74554 11.813 6.1933C12.5526 9.80772 10.0232 10.4822 8.14132 10.3338Z" stroke="#8DA5F3" stroke-linejoin="round"/>
<circle cx="9.14789" cy="6.57727" r="0.5" transform="rotate(-30 9.14789 6.57727)" fill="#8DA5F3"/>
</svg>
