<svg width="16" height="16" viewBox="0 0 16 16" fill="none" xmlns="http://www.w3.org/2000/svg">
<path fill-rule="evenodd" clip-rule="evenodd" d="M2.55279 3.77639C3.23705 2.40787 5.26295 2.40788 5.94721 3.77639C5.98193 3.84582 6 3.92237 6 4V12.5H8V8C8 7.92237 8.01807 7.84582 8.05279 7.77639C8.73705 6.40788 10.7629 6.40788 11.4472 7.77639C11.4819 7.84582 11.5 7.92237 11.5 8V12.5H12.5V6C12.5 5.92238 12.5181 5.84582 12.5528 5.77639C12.8595 5.16289 13.3803 4.75001 14 4.75001C14.6197 4.75001 15.1405 5.16289 15.4472 5.77639C15.4819 5.84582 15.5 5.92238 15.5 6V15C15.5 15.1326 15.4473 15.2598 15.3536 15.3536C15.2598 15.4473 15.1326 15.5 15 15.5H1C0.867393 15.5 0.740215 15.4473 0.646447 15.3536C0.552679 15.2598 0.5 15.1326 0.5 15V9.5C0.5 9.22385 0.723858 9 1 9H2.5V4C2.5 3.92237 2.51807 3.84582 2.55279 3.77639ZM2.5 10H1.5V14.5L2.5 14.5V10ZM3.5 14.5L8 14.5V13.5H5.5C5.22386 13.5 5 13.2761 5 13V4.13264C4.65937 3.62246 3.84063 3.62246 3.5 4.13264V14.5ZM9 14.5L14.5 14.5V6.12666C14.3192 5.82219 14.1186 5.75001 14 5.75001C13.8814 5.75001 13.6808 5.82219 13.5 6.12666V13C13.5 13.2761 13.2761 13.5 13 13.5H12.5V14.5H11.5V13.5H11C10.7239 13.5 10.5 13.2761 10.5 13V8.13264C10.1594 7.62246 9.34063 7.62246 9 8.13264V14.5Z" fill="#8DA5F3"/>
<path d="M9 4C9 4.55228 8.55228 5 8 5C7.44772 5 7 4.55228 7 4C7 3.44772 7.44772 3 8 3C8.55228 3 9 3.44772 9 4Z" fill="#8DA5F3"/>
<path d="M12 2C12 2.55228 11.5523 3 11 3C10.4477 3 10 2.55228 10 2C10 1.44772 10.4477 1 11 1C11.5523 1 12 1.44772 12 2Z" fill="#8DA5F3"/>
<path d="M15 3C15 3.55228 14.5523 4 14 4C13.4477 4 13 3.55228 13 3C13 2.44772 13.4477 2 14 2C14.5523 2 15 2.44772 15 3Z" fill="#8DA5F3"/>
</svg>
