<svg width="16" height="16" viewBox="0 0 16 16" fill="none" xmlns="http://www.w3.org/2000/svg">
<path d="M13 10H3L4.66667 8.875C3 6.25 1.33333 1 8 1C14.6667 1 13 6.25 11.3333 8.875L13 10Z" stroke="#8DA5F3" stroke-linejoin="round"/>
<path d="M4 10L3 12L4 14.5" stroke="#8DA5F3" stroke-linejoin="round"/>
<path d="M5.5 10L6 12" stroke="#8DA5F3" stroke-linejoin="round"/>
<path d="M7 10L7.5 12L6.5 13L7.5 15" stroke="#8DA5F3" stroke-linejoin="round"/>
<path d="M9.5 10L9 11.5L10 13.5L9 14" stroke="#8DA5F3" stroke-linejoin="round"/>
<path d="M11.5 10L10.5 11L11.5 12V13" stroke="#8DA5F3" stroke-linejoin="round"/>
<path d="M12 10L13.5 12L12.5 14L13.5 15" stroke="#8DA5F3" stroke-linejoin="round"/>
</svg>
