<svg width="16" height="16" viewBox="0 0 16 16" fill="none" xmlns="http://www.w3.org/2000/svg">
<path fill-rule="evenodd" clip-rule="evenodd" d="M8.88699 1.70364C8.51338 0.986035 7.48663 0.986036 7.11302 1.70364L5.80384 4.2182C5.65887 4.49664 5.39157 4.69085 5.08196 4.74268L2.28591 5.21074C1.48798 5.34431 1.17069 6.32081 1.73772 6.89788L3.72465 8.92003C3.94467 9.14395 4.04677 9.45818 4.00039 9.76865L3.58151 12.5725C3.46198 13.3727 4.29263 13.9762 5.01668 13.6152L7.55386 12.3504C7.8348 12.2103 8.16521 12.2103 8.44615 12.3504L10.9833 13.6152C11.7074 13.9762 12.538 13.3726 12.4185 12.5725L11.9996 9.76865C11.9532 9.45818 12.0553 9.14395 12.2754 8.92003L14.2623 6.89788C14.8293 6.32081 14.512 5.34431 13.7141 5.21074L10.918 4.74268C10.6084 4.69085 10.3411 4.49664 10.1962 4.2182L8.88699 1.70364ZM6 8C6.55228 8 7 7.55228 7 7C7 6.44772 6.55228 6 6 6C5.44772 6 5 6.44772 5 7C5 7.55228 5.44772 8 6 8ZM11 7C11 7.55228 10.5523 8 10 8C9.44772 8 9 7.55228 9 7C9 6.44772 9.44772 6 10 6C10.5523 6 11 6.44772 11 7ZM6.44721 8.77639C6.32372 8.5294 6.02338 8.42929 5.77639 8.55279C5.5294 8.67628 5.42929 8.97662 5.55279 9.22361C6.10954 10.3371 7.0053 11 8 11C8.9947 11 9.89046 10.3371 10.4472 9.22361C10.5707 8.97662 10.4706 8.67628 10.2236 8.55279C9.97662 8.42929 9.67628 8.5294 9.55279 8.77639C9.10954 9.66289 8.5053 10 8 10C7.4947 10 6.89046 9.66289 6.44721 8.77639Z" fill="#8DA5F3"/>
</svg>
