<svg width="16" height="16" viewBox="0 0 16 16" fill="none" xmlns="http://www.w3.org/2000/svg">
<g clip-path="url(#clip0_2_39)">
<path d="M12.5 1.5H6L7 5" stroke="#8DA5F3" stroke-linejoin="round"/>
<path d="M14.5 4L14.5 10.5L11 9" stroke="#8DA5F3" stroke-linejoin="round"/>
<path fill-rule="evenodd" clip-rule="evenodd" d="M14.2592 1.77398C13.602 1.09426 12.7941 0.902552 12.0016 0.984804C11.2303 1.06485 10.4647 1.40247 9.80927 1.78611C9.14779 2.17328 8.56211 2.62902 8.14468 2.98434C7.93504 3.16278 7.76571 3.31774 7.64807 3.42879C7.58921 3.48435 7.54317 3.52904 7.51138 3.56031L7.47453 3.59687L7.46443 3.60704L7.46217 3.60933L7.46151 3.60999L5.98973 5.08178C6.31831 5.19522 6.59517 5.41964 6.77548 5.71023L8.17061 4.3151L8.17063 4.31512L8.17387 4.31181L8.17393 4.31176L8.17404 4.31164L8.17406 4.31161L8.17544 4.31022L8.18242 4.3032L8.21268 4.27319C8.23991 4.24639 8.281 4.20649 8.33453 4.15596C8.44167 4.05481 8.59819 3.91153 8.79286 3.74582C9.18404 3.41285 9.72074 2.99663 10.3144 2.64915C10.9141 2.29815 11.5365 2.03844 12.1048 1.97946C12.6519 1.92268 13.1353 2.05024 13.5402 2.46905C13.9656 2.90904 14.0918 3.41635 14.0341 3.97089C13.9743 4.54536 13.7151 5.16354 13.3663 5.75353C13.0208 6.33812 12.6071 6.86205 12.2763 7.24262C12.1116 7.432 11.9693 7.58377 11.8689 7.68746C11.8187 7.73927 11.7792 7.77895 11.7526 7.8052L11.723 7.8343L11.7167 7.84036L10.2484 9.19978C10.5437 9.3701 10.7755 9.63809 10.8997 9.9596L12.3994 8.57108L12.3994 8.57112L12.4046 8.56619L12.0597 8.20419C12.4046 8.56619 12.4047 8.56608 12.4048 8.56595L12.4052 8.56563L12.4061 8.56472L12.4091 8.56185L12.4193 8.55198L12.456 8.51608C12.4872 8.48514 12.5319 8.44035 12.5873 8.38305C12.6982 8.26854 12.8528 8.10356 13.0309 7.89874C13.3855 7.49094 13.8404 6.91675 14.2272 6.26238C14.6108 5.61339 14.9478 4.85175 15.0287 4.07445C15.1117 3.2772 14.9232 2.46078 14.2592 1.77398ZM8.85363 11.854C8.34874 11.6125 7.99999 11.097 7.99999 10.5C7.99999 10.3616 8.01874 10.2275 8.05384 10.1003C7.98016 10.0449 7.893 10.0115 7.80281 10.0024L5.99478 8.03505L5.98764 8.02728L5.98018 8.01982L5.90504 7.94468C5.7762 7.98073 5.64034 8.00001 5.49999 8.00001C4.84678 8.00001 4.29109 7.58247 4.08525 6.99973C4.05885 7.032 4.0205 7.07866 3.97186 7.13726C3.87206 7.25747 3.72914 7.42767 3.55739 7.62671C3.21283 8.02602 2.75672 8.53618 2.30213 8.99077C2.06279 9.23011 1.713 9.20759 1.46628 8.98979C1.34955 8.88674 1.29158 8.76522 1.28526 8.65425C1.27952 8.55358 1.31223 8.39488 1.50923 8.19788C1.7045 8.00261 1.7045 7.68603 1.50923 7.49077C1.31397 7.29551 0.997389 7.29551 0.802127 7.49077C0.438911 7.85399 0.262294 8.27961 0.286878 8.71112C0.310874 9.13233 0.522866 9.49086 0.804473 9.73946C1.35444 10.225 2.31487 10.3922 3.00923 9.69788C3.48834 9.21877 3.96235 8.6881 4.31449 8.28001C4.39613 8.1854 4.47147 8.09709 4.53906 8.01721L4.97718 8.48318C4.93692 8.54963 4.89185 8.6238 4.84259 8.70453C4.62362 9.06335 4.32225 9.55103 3.9922 10.0672C3.31753 11.1224 2.56661 12.2263 2.14644 12.6465C1.9071 12.8858 1.55732 12.8633 1.3106 12.6455C1.19386 12.5424 1.1359 12.4209 1.12957 12.3099C1.12384 12.2093 1.15654 12.0506 1.35355 11.8536C1.54881 11.6583 1.54881 11.3417 1.35355 11.1465C1.15829 10.9512 0.841704 10.9512 0.646442 11.1465C0.283226 11.5097 0.10661 11.9353 0.131193 12.3668C0.155189 12.788 0.367181 13.1465 0.648788 13.3951C1.19875 13.8807 2.15919 14.0479 2.85355 13.3536C3.36708 12.84 4.17948 11.6306 4.8347 10.6059C5.16542 10.0887 5.4672 9.60054 5.68788 9.23906L6.85629 10.4817C6.5685 10.6689 6.20591 10.9078 5.82109 11.1689C4.94592 11.7625 3.90308 12.5054 3.39644 13.012C2.70208 13.7064 2.86934 14.6668 3.35485 15.2168C3.60346 15.4984 3.96199 15.7104 4.38319 15.7344C4.81471 15.759 5.24033 15.5823 5.60354 15.2191C5.79881 15.0239 5.79881 14.7073 5.60354 14.512C5.40828 14.3167 5.0917 14.3167 4.89644 14.512C4.69943 14.709 4.54074 14.7417 4.44007 14.736C4.32909 14.7297 4.20758 14.6717 4.10452 14.555C3.88672 14.3082 3.86421 13.9585 4.10354 13.7191C4.5306 13.2921 5.4894 12.6022 6.38243 11.9964C6.82069 11.6992 7.23042 11.4306 7.53073 11.2362L7.55244 11.2222L7.81017 11.4963C7.74175 11.5672 7.66435 11.6472 7.57963 11.7346C7.24161 12.0832 6.78777 12.5476 6.32337 13.012C5.62901 13.7064 5.79627 14.6668 6.28179 15.2168C6.53039 15.4984 6.88892 15.7104 7.31012 15.7344C7.74164 15.759 8.16726 15.5823 8.53048 15.2191C8.72574 15.0239 8.72574 14.7073 8.53048 14.512C8.33521 14.3167 8.01863 14.3167 7.82337 14.512C7.62637 14.709 7.46767 14.7417 7.367 14.736C7.25602 14.7297 7.13451 14.6717 7.03146 14.555C6.81365 14.3082 6.79114 13.9585 7.03048 13.7191C7.49977 13.2498 7.95747 12.7815 8.29756 12.4307C8.46768 12.2553 8.60856 12.109 8.70696 12.0066L8.82111 11.8877L8.85093 11.8565L8.85363 11.854ZM5.9998 6.48592L5.4859 6.99981C5.21627 6.99235 4.99999 6.77144 4.99999 6.50001C4.99999 6.22387 5.22385 6.00001 5.49999 6.00001C5.77142 6.00001 5.99233 6.21629 5.9998 6.48592ZM9.03061 10.3273C9.01081 10.3811 8.99999 10.4393 8.99999 10.5C8.99999 10.7762 9.22385 11 9.49999 11C9.77613 11 9.99999 10.7762 9.99999 10.5C9.99999 10.2239 9.77613 10 9.49999 10C9.45281 10 9.40716 10.0065 9.36388 10.0188L9.03061 10.3273Z" fill="#8DA5F3"/>
<path fill-rule="evenodd" clip-rule="evenodd" d="M5.05344 6.72516C5.13581 6.8882 5.30484 7 5.49999 7C5.77614 7 5.99999 6.77614 5.99999 6.5C5.99999 6.30485 5.88819 6.13581 5.72515 6.05344L5.05344 6.72516ZM5.2288 7.97555L5.62662 8.37337L8.02444 10.7712C8.00838 10.6832 7.99999 10.5926 7.99999 10.5C7.99999 9.67157 8.67157 9 9.49999 9C9.98146 9 10.4099 9.22684 10.6844 9.57947L12.0597 8.20418C12.0597 8.20418 16.0785 4.3751 13.8997 2.1215C11.7756 -0.0755579 7.81705 3.96154 7.81705 3.96154L6.4442 5.3344C6.78327 5.60941 6.99999 6.0294 6.99999 6.5C6.99999 7.32843 6.32842 8 5.49999 8C5.4074 8 5.31676 7.99161 5.2288 7.97555ZM9.96004 10.3038C9.88377 10.1252 9.7065 10 9.49999 10C9.22385 10 8.99999 10.2239 8.99999 10.5C8.99999 10.7065 9.12519 10.8838 9.30382 10.9601L9.96004 10.3038Z" fill="#8DA5F3"/>
</g>
<defs>
<clipPath id="clip0_2_39">
<rect width="16" height="16" fill="white"/>
</clipPath>
</defs>
</svg>
